<svg xmlns="http://www.w3.org/2000/svg" width="24" height="23" viewBox="0 0 24 23"><g><g><path fill="#8c6eca" d="M16.565 11.569c-.046 2.41-2.132 4.337-4.648 4.295-2.516-.042-4.525-2.037-4.478-4.447.046-2.41 2.131-4.337 4.647-4.295 2.516.041 4.526 2.037 4.479 4.447zm7.449-4.663l-.185 9.57c-.07 3.658-3.235 6.582-7.053 6.518l-9.99-.165c-3.818-.064-6.867-3.091-6.797-6.75l.185-9.57C.245 2.853 3.41-.072 7.227-.008l9.99.166c3.819.063 6.867 3.09 6.797 6.749zM18.427 11.6c.065-3.395-2.763-6.204-6.306-6.263-3.543-.058-6.48 2.655-6.545 6.049-.066 3.394 2.764 6.204 6.307 6.262 3.543.06 6.479-2.654 6.544-6.048zm2.228-6.818c.016-.854-.692-1.558-1.583-1.572-.89-.015-1.626.665-1.643 1.518-.017.854.692 1.558 1.583 1.572.891.015 1.626-.665 1.643-1.518z"/></g></g></svg>